<svg xmlns="http://www.w3.org/2000/svg" viewBox="0 0 80 120"><defs><style>.cls-1{fill:#fff;stroke:#000;stroke-miterlimit:10;stroke-width:0.25px;fill-rule:evenodd;}</style></defs><title>2019 Website 3.0.4 Buttons 2.0</title><g id="Text"><path class="cls-1" d="M8.25,94.29c.34,2.11,6,.81,8,0,1.63-.68,4.15-4,5.63-3,1,.62-.42,2.21-1.15,4.21-1.22,3.33-2.59,7.42-2.59,7.42l9.13-5.42,2.79-3.54-1.74,4.76-.15,6.92,6.9-8,1.41-3.13.33,3.87,3.45,7.81,4.25-9.55-.09-2.54,1.41,4.39,4.47,7.61L52,97.29l-.06-3.64,1.54,3.11,6.84,7.17L60,93.44l-1-4.06L61.6,91l9.25,3.65-9.29-9.72L55.64,64.62l-2.72-15,4.34-3.5a29,29,0,0,0,1.31-3.71,19.55,19.55,0,0,0-.11-4,23.37,23.37,0,0,0-.71-3.3,10.77,10.77,0,0,0-2-2.68A17.79,17.79,0,0,0,53,30.6a57.57,57.57,0,0,0,.21-6.71A38.5,38.5,0,0,0,52,19.56s-.24-2.31-.34-2.79a13.82,13.82,0,0,0-1.79-3C49.17,12.67,46,10.68,45,9.88c-1.36-1-4.65-1.4-6.32-1.78A6.51,6.51,0,0,0,36,8.21s-5.67.95-7.4,1.73a18.22,18.22,0,0,0-3,2.06s-2.73,3.22-3.06,4.33A33.72,33.72,0,0,0,22,21.17s-.59,2.74-.76,3.74c-.33,1.94.37,6.15-.19,8-.2.67-1.58,1.36-2.53,2.22a11.06,11.06,0,0,0-1.82,2.15,29.84,29.84,0,0,0-1.39,4.61c-.11,1.37,0,4.27.74,5.43,1.15,1.86,8.28,4,8.28,4l-1.63,16.2L16.66,87.32M24,30.65c-1.28,0-2.13-2-2.13-4.43s.85-4.43,2.13-4.43,2.13,2,2.13,4.43S25.29,30.65,24,30.65Zm18,6c-.13.07-.19.26-.28.37-.28.35-.48.76-.86,1.32a17.61,17.61,0,0,0-1.2,1.9c-1,2.06-2,4-2,4.61.1-1-.89-3-2.17-5.15-.35-.59-.78-1.29-1.11-1.74a17.91,17.91,0,0,0-1.08-1.67A8.53,8.53,0,0,1,31.56,33c-.71-1.22,2.74-3.84,6.12-3.74,3.65.1,5.79,2.4,6.13,3.74C43.85,33.11,43.84,35.59,42.05,36.62Zm-4.38-8.51c-4.15,0-6.8,2.56-6.8,1.94s2.65-2.91,6.8-2.91,6.75,2.56,6.75,3.18S41.83,28.11,37.67,28.11Zm12,2.67c-1.23,0-2.22-2-2.22-4.56s1-4.56,2.22-4.56,2.22,2,2.22,4.56S50.94,30.78,49.72,30.78Z"/></g></svg>