<svg xmlns="http://www.w3.org/2000/svg" viewBox="0 0 81 123"><defs><style>.cls-1{stroke:#fff;stroke-miterlimit:10;stroke-width:0.25px;fill-rule:evenodd;}</style></defs><title>2019 Website 3.0.4 Buttons 4.0</title><g id="Text"><path class="cls-1" d="M2.4,106.74c.41,2.53,7.25,1,9.62,0,2-.82,5-4.83,6.77-3.67,1.16.75-.5,2.66-1.39,5.06-1.47,4-3.11,8.93-3.11,8.93l11-6.52,3.36-4.26L26.53,112l-.18,8.32,8.3-9.59L36.34,107l.4,4.65L40.88,121,46,109.52l-.12-3,1.7,5.27L53,120.89l2-10.55L54.93,106l1.85,3.74L65,118.33l-.44-12.62-1.14-4.87,3.12,2,11.11,4.39L66.49,95.49,59.37,71.08,56.11,53l5.21-4.2a34.11,34.11,0,0,0,1.58-4.46,23.81,23.81,0,0,0-.13-4.77,27.9,27.9,0,0,0-.85-4,13.21,13.21,0,0,0-2.41-3.23,21.46,21.46,0,0,0-3.3-2.19,70.06,70.06,0,0,0,.24-8.07A46.6,46.6,0,0,0,55,16.9s-.29-2.77-.4-3.36c-.16-.88-1.66-2.87-2.15-3.61-.87-1.32-4.67-3.71-5.92-4.67C44.92,4,41,3.57,39,3.12a7.89,7.89,0,0,0-3.21.14s-6.81,1.13-8.89,2.07a21.75,21.75,0,0,0-3.64,2.48S19.94,11.68,19.53,13A41.27,41.27,0,0,0,19,18.83s-.7,3.3-.91,4.5c-.4,2.33.44,7.39-.23,9.66-.25.81-1.9,1.64-3,2.67a13.33,13.33,0,0,0-2.19,2.59,34.69,34.69,0,0,0-1.67,5.55c-.13,1.64,0,5.12.89,6.52,1.38,2.23,10,4.84,10,4.84l-2,19.47L12.51,98.36m8.84-68.13c-1.54,0-2.56-2.39-2.56-5.32s1-5.33,2.56-5.33,2.56,2.39,2.56,5.33S22.89,30.23,21.35,30.23ZM43,37.4c-.16.09-.23.32-.34.46-.33.41-.57.91-1,1.58a22.21,22.21,0,0,0-1.45,2.28c-1.24,2.48-2.44,4.79-2.45,5.55.12-1.16-1.07-3.58-2.61-6.2-.41-.7-.93-1.55-1.33-2.09a22.61,22.61,0,0,0-1.3-2c-1.53-1.46-1.78-3.42-2.1-4-.86-1.47,3.29-4.61,7.36-4.5,4.39.12,7,2.89,7.36,4.5C45.2,33.18,45.19,36.17,43,37.4ZM37.78,27.17c-5,0-8.18,3.09-8.18,2.34S32.78,26,37.78,26s8.1,3.08,8.1,3.82S42.77,27.17,37.78,27.17Zm14.48,3.22c-1.48,0-2.67-2.45-2.67-5.48s1.19-5.49,2.67-5.49,2.67,2.46,2.67,5.49S53.73,30.39,52.26,30.39Z"/></g></svg>