<svg xmlns="http://www.w3.org/2000/svg" viewBox="0 0 87 100"><defs><style>.cls-1{fill-rule:evenodd;}</style></defs><title>2019 Website 3.0.4 Buttons 4.0</title><g id="Text"><path class="cls-1" d="M58,95a45.62,45.62,0,0,0,2.85-7.28A8.71,8.71,0,0,1,62.64,84c.06-.21.15-.45.21-.66.12-.42.38-2,.72-2.15s1,1.26,1.39,1.6c2.37,1.95,4.94,3.67,7.45,5.46a111.77,111.77,0,0,1-6.24-17.46c-1.08-4.21-.35-9.28-1.11-14-.07-1.14-.15-2.28-.22-3.42,1.69-5.87,3.63-14.39,7.52-18l4.09,3.1,1.77.55c.86.6.88,1.28,2.1,1.77l1-.88c0-5-2.32-6.85-3.31-10.28V27.2c-.34-1.39-1.25-2.13-2-3.09C78.23,14,74.71,7.25,66.5,4.65c-2.27-.72-6.2-.11-8.51-1-5.84,0-11.18,4.5-13.82,8-4.53,5.91-6.83,13.14-9.84,20.78-3.17,8.05-6.09,16.2-9.5,24-4.5,10.23-12.8,22.26-21,28.85l-.27.26h0a12.78,12.78,0,0,1,2.79-.82H6.5a1.11,1.11,0,0,1,.35-.33A.91.91,0,0,1,7,84.25c.06,0,.1-.06.16-.08,2.31-.66,5.24-.89,6.87-2.91.38-.49,1.86-1.35,2.29-1.13s-.2,1.55-.14,2a14,14,0,0,1,.08,2.33c.26,1.27.52,2.68.92,4,.7,1.29,1.25,2.76,2,3.95l.4.1a103.44,103.44,0,0,1,4.53-12.39c.22-.49.88-1.69,1.38-1.62s.83,1.41.93,1.92a29.34,29.34,0,0,0,.79,3c.06.06.14.07.18.14a37.48,37.48,0,0,1,4.23,8.5c1.36-4,4.63-9.37,4.84-10.09s1-2,1.51-2,.74,1.41.93,2c.92,3,3.68,5.18,5.3,7.77,1.35-2.19,2.79-4.38,3.24-6.9.11-.66.46-2.35,1-2.31s1.52,1.9,1.45,2.65c0,.11,0,.21,0,.33h0a11.73,11.73,0,0,0,.65,1.18ZM55.08,20.34a3.36,3.36,0,0,1,1.1-6.63,5.06,5.06,0,0,1,2.1,1.21C59.88,17.1,58.28,21,55.08,20.34Z"/></g></svg>