<?xml version="1.0" encoding="utf-8"?>
<!-- Generator: Adobe Illustrator 23.0.2, SVG Export Plug-In . SVG Version: 6.00 Build 0)  -->
<svg version="1.1" xmlns="http://www.w3.org/2000/svg" xmlns:xlink="http://www.w3.org/1999/xlink" x="0px" y="0px"
	 viewBox="0 0 328 980" style="enable-background:new 0 0 328 980;" xml:space="preserve">
<style type="text/css">
	.st0{fill:#779F8B;}
	.st1{fill:#719985;}
	.st2{fill:#375B47;}
	.st3{fill:#3D634F;}
	.st4{fill:#6C937F;}
	.st5{fill:#638B77;}
	.st6{fill:#59826E;}
	.st7{fill:#507862;}
	.st8{fill:#2A4A38;}
	.st9{fill:#476F5A;}
	.st10{fill:#1A3929;}
	.st11{fill:#83A995;}
	.st12{fill:#92B8A6;}
	.st13{fill:#8AB09E;}
	.st14{fill:#9CBEAE;}
	.st15{fill:#325443;}
	.st16{fill:none;stroke:#000000;stroke-width:0.75;stroke-miterlimit:10;}
	.st17{fill:#B3CDAA;stroke:#000000;stroke-width:0.75;stroke-miterlimit:10;}
	.st18{fill:#203321;stroke:#000000;stroke-width:0.75;stroke-miterlimit:10;}
	.st19{fill:url(#SVGID_1_);stroke:#000000;stroke-width:0.5;stroke-miterlimit:10;}
	.st20{fill:url(#SVGID_2_);stroke:#000000;stroke-width:0.5;stroke-miterlimit:10;}
	.st21{fill:url(#SVGID_3_);stroke:#000000;stroke-width:0.5;stroke-miterlimit:10;}
	.st22{fill:url(#SVGID_4_);stroke:#000000;stroke-width:0.5;stroke-miterlimit:10;}
	.st23{fill:#B4CFC1;}
	.st24{fill:#A0BFAF;}
	.st25{fill:#618978;}
	.st26{fill:#93B5AC;}
	.st27{fill:#A2C3B2;}
	.st28{fill:#84A794;}
	.st29{fill:#6D9581;}
	.st30{fill:#A2C3BC;}
	.st31{fill:#FEFEFE;}
	.st32{fill:#58806A;}
	.st33{fill:#A8C5B8;}
	.st34{fill:#9FBFAE;}
	.st35{fill:#749D88;}
	.st36{fill:#B0CDC9;}
	.st37{fill:#7BA18C;}
	.st38{fill:#ACC9BA;}
	.st39{fill:#9DBEAF;}
	.st40{fill:#7AA18C;}
	.st41{fill:#A8C3B5;}
	.st42{fill:#A0C1BC;}
	.st43{fill:#AED0C9;}
	.st44{fill:#94B2A3;}
	.st45{fill:#7BA591;}
	.st46{fill:#87ACA0;}
	.st47{fill:#749F87;}
	.st48{fill:#3F5E51;}
	.st49{fill:#9FC0BB;}
	.st50{fill:#7CA396;}
	.st51{fill:#A7C4B6;}
	.st52{fill:#A8C6B6;}
	.st53{fill:#9FBCAE;}
	.st54{fill:#A5C3B4;}
	.st55{fill:#91AF9E;}
	.st56{fill:#9AB8A9;}
	.st57{fill:#C3E0D2;}
	.st58{fill:#97B4A4;}
	.st59{fill:#9EB9AD;}
	.st60{fill:#9FBAAC;}
	.st61{fill:#A4BFB1;}
	.st62{fill:#C3DED2;}
	.st63{fill:#9AB6A9;}
	.st64{fill:#91AE9F;}
	.st65{fill:#8FAA9C;}
	.st66{fill:#93ADA0;}
	.st67{fill:#92AE9F;}
	.st68{fill:#94B3A0;}
	.st69{fill:#AAC8B7;}
	.st70{fill:#708E7C;}
	.st71{fill:#B7D4C5;}
	.st72{fill:#C8E6D5;}
	.st73{fill:#86A495;}
	.st74{fill:#4B765E;}
	.st75{fill:#4B745F;}
	.st76{fill:#3C6650;}
	.st77{fill:#517A65;}
	.st78{fill:#7EA293;}
	.st79{fill:#7AA492;}
	.st80{fill:#7A9E8F;}
	.st81{fill:#345C49;}
	.st82{fill:#4C765D;}
	.st83{fill:#6B937D;}
	.st84{fill:#7FA791;}
	.st85{fill:#69937C;}
	.st86{fill:#68937A;}
	.st87{fill:#93B6A2;}
	.st88{fill:#749682;}
	.st89{fill:#AECEC0;}
	.st90{fill:#618A74;}
	.st91{fill:#8BB09C;}
	.st92{fill:#69917D;}
	.st93{fill:#365948;}
	.st94{fill:#476B56;}
	.st95{fill:#618973;}
	.st96{fill:#527667;}
	.st97{fill:#365C43;}
	.st98{fill:#6A927D;}
	.st99{fill:#7C9D91;}
	.st100{fill:#476C5B;}
	.st101{fill:#244735;}
	.st102{fill:#668E7A;}
	.st103{fill:#416A50;}
	.st104{fill:#4D755D;}
	.st105{fill:#95B3A4;}
	.st106{fill:#85A394;}
	.st107{fill:#588169;}
	.st108{fill:#88A995;}
	.st109{fill:#84A293;}
	.st110{fill:#7F988D;}
	.st111{fill:#9ABAAC;}
	.st112{fill:#6D8E80;}
	.st113{fill:#749885;}
	.st114{fill:#8EB0A1;}
	.st115{fill:#587D6C;}
	.st116{fill:#84A899;}
	.st117{fill:#82A591;}
	.st118{fill:#5C8371;}
	.st119{fill:#719A82;}
	.st120{fill:#618B6E;}
	.st121{fill:#A2CBB6;}
	.st122{fill:#4F795E;}
	.st123{fill:#ACCCBB;}
	.st124{fill:#9DBCAA;}
	.st125{fill:#9CBBA9;}
	.st126{fill:#A8C7B5;}
	.st127{fill:#B5D3C5;}
	.st128{fill:#8FB0A0;}
	.st129{fill:#B0CFC0;}
	.st130{fill:#B1CFBE;}
	.st131{fill:#87A795;}
	.st132{fill:#BAD9C9;}
	.st133{fill:#97B7A5;}
	.st134{fill:#B6D6C7;}
	.st135{fill:#AFCDBC;}
	.st136{fill:#BCDACA;}
	.st137{fill:#88A899;}
	.st138{fill:#62756F;}
	.st139{fill:#91AFA0;}
	.st140{fill:#C1DCCE;}
	.st141{fill:#80A18B;}
	.st142{fill:#B1CEBF;}
	.st143{fill:#B4D3C4;}
	.st144{fill:#BFDDCE;}
	.st145{fill:#A0BEAF;}
	.st146{fill:#578169;}
	.st147{fill:#709682;}
	.st148{fill:#83AA97;}
	.st149{fill:#1E4A30;}
	.st150{fill:#5D8570;}
	.st151{fill:#80A791;}
	.st152{fill:#3F6D53;}
	.st153{fill:#568369;}
	.st154{fill:#94B6A2;}
	.st155{fill:#98BAAA;}
	.st156{fill:#416F55;}
	.st157{fill:#68937B;}
	.st158{fill:#80A48F;}
	.st159{fill:#84A694;}
	.st160{fill:#9EC1AE;}
	.st161{fill:#AACEBA;}
	.st162{fill:#386149;}
	.st163{fill:#99BFAD;}
	.st164{fill:#73977D;}
	.st165{fill:#416154;}
	.st166{fill:#618875;}
	.st167{fill:#547B65;}
	.st168{fill:#42675A;}
	.st169{fill:#769A88;}
	.st170{fill:#3F6D4D;}
	.st171{fill:#76977F;}
	.st172{fill:#618070;}
	.st173{fill:#486B5A;}
	.st174{fill:#1C2920;}
	.st175{fill:#435149;}
	.st176{fill:#70837F;}
	.st177{fill:#628174;}
	.st178{fill:#A7C1B3;}
	.st179{fill:#95B5A3;}
	.st180{fill:#9DBEAC;}
	.st181{fill:#B0CEBF;}
	.st182{fill:#BDDACA;}
	.st183{fill:#AAC7B8;}
	.st184{fill:#ABCABB;}
	.st185{fill:#8AB09D;}
	.st186{fill:#5D8372;}
	.st187{fill:#9FBFB0;}
	.st188{fill:#8CAE9E;}
	.st189{fill:#81A993;}
	.st190{fill:#A9CCBC;}
	.st191{fill:#315143;}
	.st192{fill:#7D9F8E;}
	.st193{fill:url(#SVGID_5_);stroke:#000000;stroke-width:0.5;stroke-miterlimit:10;}
	.st194{fill:url(#SVGID_6_);stroke:#000000;stroke-width:0.5;stroke-miterlimit:10;}
	.st195{fill:url(#SVGID_7_);stroke:#000000;stroke-width:0.5;stroke-miterlimit:10;}
	.st196{fill:url(#SVGID_8_);stroke:#000000;stroke-width:0.5;stroke-miterlimit:10;}
	.st197{fill-rule:evenodd;clip-rule:evenodd;}
	.st198{fill-rule:evenodd;clip-rule:evenodd;stroke:#FFFFFF;stroke-width:0.25;stroke-miterlimit:10;}
	.st199{fill:#BDBEBA;stroke:#000000;stroke-width:0.75;stroke-miterlimit:10;}
	.st200{fill:#565656;stroke:#000000;stroke-width:0.75;stroke-miterlimit:10;}
	.st201{fill:#EEEEEC;stroke:#000000;stroke-width:0.75;stroke-miterlimit:10;}
	.st202{fill:#FBFBFB;stroke:#000000;stroke-miterlimit:10;}
	.st203{fill:#AFAFAF;stroke:#000000;stroke-width:0.75;stroke-miterlimit:10;}
	.st204{fill:#333333;stroke:#000000;stroke-width:0.75;stroke-miterlimit:10;}
	.st205{fill:#F6F6F6;stroke:#000000;stroke-miterlimit:10;}
	.st206{fill:url(#SVGID_9_);stroke:#000000;stroke-width:0.5;stroke-miterlimit:10;}
	.st207{fill:url(#SVGID_10_);stroke:#000000;stroke-width:0.5;stroke-miterlimit:10;}
	.st208{fill:url(#SVGID_11_);stroke:#000000;stroke-width:0.5;stroke-miterlimit:10;}
	.st209{fill:url(#SVGID_12_);stroke:#000000;stroke-width:0.5;stroke-miterlimit:10;}
	.st210{fill:url(#SVGID_13_);stroke:#000000;stroke-width:0.5;stroke-miterlimit:10;}
	.st211{fill:url(#SVGID_14_);stroke:#000000;stroke-width:0.5;stroke-miterlimit:10;}
	.st212{fill:url(#SVGID_15_);stroke:#000000;stroke-width:0.5;stroke-miterlimit:10;}
	.st213{fill:url(#SVGID_16_);stroke:#000000;stroke-width:0.5;stroke-miterlimit:10;}
	.st214{fill:#FFFFFF;stroke:#110803;stroke-width:1.5;stroke-miterlimit:10;}
</style>
<g id="SVG">
	<path class="st197" d="M148.95,375.99c1.13-2.36,2.13-4.74,2.85-7.28c0.4-1.41,0.86-2.72,1.84-3.74c0.06-0.21,0.15-0.45,0.21-0.66
		c0.12-0.42,0.39-2.03,0.72-2.15c0.44-0.16,0.98,1.26,1.39,1.6c2.37,1.95,4.94,3.67,7.45,5.47c-2.37-5.41-4.58-10.96-6.25-17.46
		c-1.08-4.22-0.35-9.29-1.11-14.04c-0.07-1.14-0.15-2.28-0.22-3.42c1.69-5.87,3.63-14.38,7.51-18.02c1.36,1.03,2.73,2.06,4.09,3.09
		c0.59,0.19,1.18,0.37,1.76,0.55c0.86,0.6,0.89,1.27,2.1,1.77c0.33-0.29,0.66-0.59,0.99-0.89c0.02-5.04-2.33-6.85-3.31-10.28v-2.32
		c-0.34-1.39-1.25-2.14-1.99-3.09c2.22-10.15-1.29-16.86-9.5-19.46c-2.27-0.72-6.2-0.11-8.52-1c-5.84,0.02-11.18,4.51-13.82,7.96
		c-4.53,5.92-6.83,13.14-9.84,20.79c-3.17,8.05-6.09,16.2-9.51,23.99c-4.49,10.23-12.8,22.26-21.01,28.85
		c-0.09,0.08-0.18,0.17-0.27,0.25c0.01,0,0.02,0,0.03-0.01c0.91-0.28,1.81-0.75,2.79-0.82c0.05,0,0.09,0,0.14,0
		c0.08-0.13,0.2-0.24,0.34-0.33c0.05-0.04,0.11-0.06,0.18-0.09c0.06-0.02,0.09-0.06,0.16-0.08c2.31-0.66,5.24-0.89,6.87-2.91
		c0.39-0.48,1.86-1.35,2.29-1.12c0.43,0.23-0.19,1.55-0.13,2.02c0.1,0.78,0.1,1.56,0.07,2.33c0.26,1.28,0.53,2.68,0.92,4.03
		c0.7,1.29,1.25,2.76,1.99,3.95c0.14,0.03,0.27,0.07,0.4,0.1c1.28-4.19,2.74-8.44,4.53-12.39c0.22-0.49,0.88-1.69,1.38-1.61
		s0.83,1.41,0.93,1.92c0.2,1.02,0.49,2.02,0.8,3.03c0.06,0.06,0.13,0.07,0.18,0.15c1.6,2.43,3.2,5.43,4.22,8.5
		c1.36-4.04,4.63-9.37,4.84-10.09c0.18-0.61,0.99-2,1.51-2c0.52,0.01,0.74,1.41,0.93,2c0.93,2.95,3.69,5.18,5.31,7.77
		c1.35-2.19,2.79-4.38,3.23-6.9c0.12-0.66,0.46-2.35,1.04-2.31c0.65,0.04,1.51,1.9,1.45,2.65c-0.01,0.12,0.04,0.22,0.02,0.33
		c0,0,0,0,0,0c-0.06-0.02,0.79,1.45,0.65,1.18L148.95,375.99z M146.08,301.34c-3.84-0.83-3.55-6.8,1.11-6.63
		c0.78,0.37,1.62,0.56,2.1,1.22C150.88,298.1,149.28,302.03,146.08,301.34z"/>
</g>
<g id="Buttons">
</g>
<g id="Text">
</g>
</svg>
